<?xml version="1.0" encoding="UTF-8" standalone="no"?><!-- Generator: Gravit.io --><svg xmlns="http://www.w3.org/2000/svg" xmlns:xlink="http://www.w3.org/1999/xlink" style="isolation:isolate" viewBox="0 0 375 812" width="375pt" height="812pt"><defs><clipPath id="_clipPath_qHXumVZ6pFBYHjONPARJkake0MS25MBw"><rect width="375" height="812"/></clipPath></defs><g clip-path="url(#_clipPath_qHXumVZ6pFBYHjONPARJkake0MS25MBw)"><rect width="375" height="812" style="fill:rgb(39,174,96)"/><rect x="0" y="262.5" width="375" height="560.5" transform="matrix(1,0,0,1,0,0)" fill="rgb(72,72,72)"/><rect x="0" y="0" width="375" height="65" transform="matrix(1,0,0,1,0,0)" fill="rgb(46,204,113)"/><text transform="matrix(1,0,0,1,17.563,236.877)" style="font-family:'Open Sans';font-weight:400;font-size:20px;font-style:normal;fill:#ffffff;stroke:none;">FILTROS</text><text transform="matrix(1,0,0,1,17.563,41.515)" style="font-family:'Open Sans';font-weight:400;font-size:22px;font-style:normal;fill:#ffffff;stroke:none;">Encontrar um lugar!</text><path d=" M 347.935 218.25 L 328.166 241.75 L 309.438 218.25" fill="none" vector-effect="non-scaling-stroke" stroke-width="4" stroke="rgb(251,198,251)" stroke-linejoin="miter" stroke-linecap="square" stroke-miterlimit="3"/><g><g><text transform="matrix(1,0,0,1,66.559,449.002)" style="font-family:'Open Sans';font-weight:400;font-size:20px;font-style:normal;fill:#2ecc71;stroke:none;">F1</text><path d="M 51.668 420.125 L 323.332 420.125 C 334.152 420.125 342.938 428.91 342.938 439.731 L 342.938 441.519 C 342.938 452.34 334.152 461.125 323.332 461.125 L 51.668 461.125 C 40.848 461.125 32.062 452.34 32.062 441.519 L 32.062 439.731 C 32.062 428.91 40.848 420.125 51.668 420.125 Z" style="fill:none;stroke:#2ECC71;stroke-width:3;stroke-linecap:square;stroke-miterlimit:2;"/><g><rect x="113.937" y="420.125" width="75" height="41" transform="matrix(1,0,0,1,0,0)" fill="rgb(46,204,113)"/><text transform="matrix(1,0,0,1,140.559,449.002)" style="font-family:'Open Sans';font-weight:400;font-size:20px;font-style:normal;fill:#ffffff;stroke:none;">F2</text></g><g><rect x="187.937" y="420.125" width="75" height="41" transform="matrix(1,0,0,1,0,0)" fill="none" vector-effect="non-scaling-stroke" stroke-width="3" stroke="rgb(46,204,113)" stroke-linejoin="miter" stroke-linecap="square" stroke-miterlimit="2"/><text transform="matrix(1,0,0,1,215.559,449.002)" style="font-family:'Open Sans';font-weight:400;font-size:20px;font-style:normal;fill:#2ecc71;stroke:none;">F3</text></g><g><text transform="matrix(1,0,0,1,289.684,449.002)" style="font-family:'Open Sans';font-weight:400;font-size:20px;font-style:normal;fill:#2ecc71;stroke:none;">F4</text></g></g><text transform="matrix(1,0,0,1,32.062,396.377)" style="font-family:'Open Sans';font-weight:400;font-size:20px;font-style:normal;fill:#2ecc71;stroke:none;">Do que eu preciso?</text></g><g><text transform="matrix(1,0,0,1,41.307,639.627)" style="font-family:'Open Sans';font-weight:400;font-size:20px;font-style:normal;fill:#2ecc71;stroke:none;">1</text><text transform="matrix(1,0,0,1,311.996,639.627)" style="font-family:'Open Sans';font-weight:400;font-size:20px;font-style:normal;fill:#2ecc71;stroke:none;">+5</text><circle vector-effect="non-scaling-stroke" cx="47.53350000000005" cy="599.7789999999998" r="15.471000000000004" fill="rgb(46,204,113)"/><circle vector-effect="non-scaling-stroke" cx="327.4665000000001" cy="599.7790000000001" r="15.471000000000004" fill="rgb(46,204,113)"/><rect x="52.156" y="592.779" width="266.158" height="14" transform="matrix(1,0,0,1,0,0)" fill="rgb(46,204,113)"/><text transform="matrix(1,0,0,1,32.063,564.127)" style="font-family:'Open Sans';font-weight:400;font-size:20px;font-style:normal;fill:#2ecc71;stroke:none;">De quanto eu preciso?</text></g><g><defs><filter id="ItPu6iMpC6ZgYAbYCe6ezRt8twziYIU2" x="-200%" y="-200%" width="400%" height="400%" filterUnits="objectBoundingBox" color-interpolation-filters="sRGB"><feGaussianBlur xmlns="http://www.w3.org/2000/svg" in="SourceGraphic" stdDeviation="2.146804531419514"/><feOffset xmlns="http://www.w3.org/2000/svg" dx="-5" dy="5" result="pf_100_offsetBlur"/><feFlood xmlns="http://www.w3.org/2000/svg" flood-color="#000000" flood-opacity="0.16"/><feComposite xmlns="http://www.w3.org/2000/svg" in2="pf_100_offsetBlur" operator="in" result="pf_100_dropShadow"/><feBlend xmlns="http://www.w3.org/2000/svg" in="SourceGraphic" in2="pf_100_dropShadow" mode="normal"/></filter></defs><g filter="url(#ItPu6iMpC6ZgYAbYCe6ezRt8twziYIU2)"><circle vector-effect="non-scaling-stroke" cx="314.4345192314265" cy="739.5" r="33.5" fill="rgb(64,219,128)"/></g><path d=" M 311.337 730 L 322.935 739.757 L 311.337 749" fill="none" vector-effect="non-scaling-stroke" stroke-width="4" stroke="rgb(251,198,251)" stroke-linejoin="miter" stroke-linecap="square" stroke-miterlimit="3"/></g></g></svg>