<?xml version="1.0" encoding="UTF-8" standalone="no"?><!-- Generator: Gravit.io --><svg xmlns="http://www.w3.org/2000/svg" xmlns:xlink="http://www.w3.org/1999/xlink" style="isolation:isolate" viewBox="0 0 375 812" width="375pt" height="812pt"><defs><clipPath id="_clipPath_6xTjCKtB8UOv4FLRurt20EX4j8LpYOyR"><rect width="375" height="812"/></clipPath></defs><g clip-path="url(#_clipPath_6xTjCKtB8UOv4FLRurt20EX4j8LpYOyR)"><rect width="375" height="812" style="fill:rgb(72,72,72)"/><g><defs><linearGradient id="_lgradient_34" x1="-8.881784197001252e-16" y1="0" x2="1.0673585692443126" y2="0.8792007020207898"><stop offset="0%" style="stop-color:#2ECC71"/><stop offset="98.69565217391305%" style="stop-color:#00FFFF"/></linearGradient></defs><path d="M 122.942 529.116 L 252.058 529.116 C 269.135 529.116 283 542.981 283 560.058 L 283 560.058 C 283 577.135 269.135 591 252.058 591 L 122.942 591 C 105.865 591 92 577.135 92 560.058 L 92 560.058 C 92 542.981 105.865 529.116 122.942 529.116 Z" style="stroke:none;fill:url(#_lgradient_34);stroke-miterlimit:10;"/><text transform="matrix(1,0,0,1,155.712,568.935)" style="font-family:'Open Sans';font-weight:400;font-size:20px;font-style:normal;fill:#484848;stroke:none;">ENVIAR</text></g><g><path d="M 131.054 608.892 L 243.946 608.892 C 258.878 608.892 271 621.014 271 635.946 L 271 635.946 C 271 650.878 258.878 663 243.946 663 L 131.054 663 C 116.122 663 104 650.878 104 635.946 L 104 635.946 C 104 621.014 116.122 608.892 131.054 608.892 Z" style="fill:none;stroke:#2ECC71;stroke-width:3;stroke-linecap:square;stroke-miterlimit:2;"/><text transform="matrix(1,0,0,1,136.754,644.823)" style="font-family:'Open Sans';font-weight:400;font-size:20px;font-style:normal;fill:#2ecc71;stroke:none;">CANCELAR</text></g><linearGradient id="_lgradient_35" x1="0.5" y1="1" x2="0.5000000000000001" y2="0" gradientTransform="matrix(-271.162,363.166,-196.799,-146.942,215.293,57.62)" gradientUnits="userSpaceOnUse"><stop offset="0%" stop-opacity="1" style="stop-color:rgb(4,251,243)"/><stop offset="99.1304347826087%" stop-opacity="1" style="stop-color:rgb(39,211,132)"/></linearGradient><path d=" M 111.069 -7.72 C 59.958 60.046 39.761 119.432 50.45 170.41 Q 81.027 316.241 -83.436 400.203 L -228 240.806 L 18.494 -89.322 L 111.069 -7.72 Z " fill="url(#_lgradient_35)"/><linearGradient id="_lgradient_36" x1="0" y1="0.5" x2="0.5642031506431598" y2="0.14591442243046515" gradientTransform="matrix(271.162,363.166,169.232,-126.359,206.274,42.834)" gradientUnits="userSpaceOnUse"><stop offset="0%" stop-opacity="1" style="stop-color:rgb(4,251,244)"/><stop offset="98.26086956521739%" stop-opacity="1" style="stop-color:rgb(39,211,133)"/></linearGradient><path d=" M 282.931 -1.923 Q 206.548 117.623 343.55 176.207 Q 480.552 234.791 477.436 406 L 622 246.603 L 375.506 -83.525 L 282.931 -1.923 Z " fill="url(#_lgradient_36)"/><defs><filter id="hNfDxa19He1ZwR98ptrPQA5imGcvWsrH" x="-200%" y="-200%" width="400%" height="400%" filterUnits="objectBoundingBox" color-interpolation-filters="sRGB"><feGaussianBlur xmlns="http://www.w3.org/2000/svg" in="SourceGraphic" stdDeviation="6.440413594258542"/><feOffset xmlns="http://www.w3.org/2000/svg" dx="5" dy="5" result="pf_100_offsetBlur"/><feFlood xmlns="http://www.w3.org/2000/svg" flood-color="#000000" flood-opacity="0.25"/><feComposite xmlns="http://www.w3.org/2000/svg" in2="pf_100_offsetBlur" operator="in" result="pf_100_dropShadow"/><feBlend xmlns="http://www.w3.org/2000/svg" in="SourceGraphic" in2="pf_100_dropShadow" mode="normal"/></filter></defs><g filter="url(#hNfDxa19He1ZwR98ptrPQA5imGcvWsrH)"><text transform="matrix(1,0,0,1,80.336,300.404)" style="font-family:'Palanquin Dark';font-weight:400;font-size:36px;font-style:normal;fill:#ffffff;stroke:none;">Tudo pronto!</text><text transform="matrix(1,0,0,1,73.838,345.389)" style="font-family:'Palanquin Dark';font-weight:400;font-size:36px;font-style:normal;fill:#ffffff;stroke:none;">Basta enviar e </text><text transform="matrix(1,0,0,1,65.288,390.374)" style="font-family:'Palanquin Dark';font-weight:400;font-size:36px;font-style:normal;fill:#ffffff;stroke:none;">depois é com a </text><text transform="matrix(1,0,0,1,59.852,435.36)" style="font-family:'Palanquin Dark';font-weight:400;font-size:36px;font-style:normal;fill:#ffffff;stroke:none;">gente. Ah, fique </text><text transform="matrix(1,0,0,1,25.04,480.345)" style="font-family:'Palanquin Dark';font-weight:400;font-size:36px;font-style:normal;fill:#ffffff;stroke:none;">ligado no seu email!</text></g></g></svg>