<?xml version="1.0" encoding="UTF-8" standalone="no"?><!-- Generator: Gravit.io --><svg xmlns="http://www.w3.org/2000/svg" xmlns:xlink="http://www.w3.org/1999/xlink" style="isolation:isolate" viewBox="0 0 375 812" width="375pt" height="812pt"><defs><clipPath id="_clipPath_efmaslvxPiZYVwz2hAfOU18gQ01miQBf"><rect width="375" height="812"/></clipPath></defs><g clip-path="url(#_clipPath_efmaslvxPiZYVwz2hAfOU18gQ01miQBf)"><rect width="375" height="812" style="fill:rgb(72,72,72)"/><rect x="0" y="0" width="375" height="65" transform="matrix(1,0,0,1,0,0)" fill="rgb(46,204,113)"/><text transform="matrix(1,0,0,1,45.563,41.515)" style="font-family:'Open Sans';font-weight:700;font-size:22px;font-style:normal;fill:#ffffff;stroke:none;">Cadastrar um lugar!</text><g><circle vector-effect="non-scaling-stroke" cx="314.4345192314264" cy="737.4999999999993" r="33.5" fill="rgb(64,219,128)"/><path d=" M 311.337 728 L 322.935 737.757 L 311.337 747" fill="none" vector-effect="non-scaling-stroke" stroke-width="4" stroke="rgb(251,198,251)" stroke-linejoin="miter" stroke-linecap="square" stroke-miterlimit="3"/></g><g/><g><circle vector-effect="non-scaling-stroke" cx="55.499999999999964" cy="739.5" r="33.5" fill="rgb(89,89,89)"/><path d=" M 58.299 730 L 46.701 739.757 L 58.299 749" fill="none" vector-effect="non-scaling-stroke" stroke-width="4" stroke="rgb(251,198,251)" stroke-linejoin="miter" stroke-linecap="square" stroke-miterlimit="3"/></g><g><g/></g><defs><filter id="1q44c8S0XVbF76OJdexuXaBheioa5Zap" x="-200%" y="-200%" width="400%" height="400%" filterUnits="objectBoundingBox" color-interpolation-filters="sRGB"><feGaussianBlur xmlns="http://www.w3.org/2000/svg" in="SourceGraphic" stdDeviation="15.027631719936599"/><feOffset xmlns="http://www.w3.org/2000/svg" dx="10" dy="5" result="pf_100_offsetBlur"/><feFlood xmlns="http://www.w3.org/2000/svg" flood-color="#000000" flood-opacity="0.35"/><feComposite xmlns="http://www.w3.org/2000/svg" in2="pf_100_offsetBlur" operator="in" result="pf_100_dropShadow"/><feBlend xmlns="http://www.w3.org/2000/svg" in="SourceGraphic" in2="pf_100_dropShadow" mode="normal"/></filter></defs><g filter="url(#1q44c8S0XVbF76OJdexuXaBheioa5Zap)"><linearGradient id="_lgradient_37" x1="0.29088493571966534" y1="0.23594923594923592" x2="1.1851131513180169" y2="1.1347485928983725" gradientTransform="matrix(258.935,0,0,263.385,89,260)" gradientUnits="userSpaceOnUse"><stop offset="0%" stop-opacity="1" style="stop-color:rgb(46,204,113)"/><stop offset="98.69565217391305%" stop-opacity="1" style="stop-color:rgb(0,255,255)"/></linearGradient><path d=" M 242.58 365.354 L 251.359 365.354 C 253.787 365.354 255.749 363.392 255.749 360.964 C 255.749 358.537 253.787 356.575 251.359 356.575 L 242.58 356.575 C 240.152 356.575 238.19 358.537 238.19 360.964 C 238.19 363.392 240.152 365.354 242.58 365.354 Z  M 227.225 396.082 C 225.324 396.078 223.476 395.74 221.729 395.073 C 219.481 394.217 216.931 395.345 216.061 397.61 C 215.201 399.875 216.338 402.412 218.599 403.277 C 221.347 404.322 224.24 404.857 227.216 404.862 L 228.783 404.862 C 231.21 404.862 233.173 402.9 233.173 400.472 C 233.173 398.045 231.21 396.082 228.783 396.082 L 227.225 396.082 Z  M 216.803 368.322 C 217.598 368.322 218.397 368.106 219.121 367.659 C 221.066 366.447 223.217 365.705 225.504 365.451 C 227.914 365.183 229.652 363.014 229.389 360.604 C 229.125 358.194 226.97 356.474 224.542 356.719 C 220.934 357.119 217.545 358.287 214.472 360.205 C 212.414 361.487 211.79 364.195 213.072 366.254 C 213.906 367.588 215.337 368.322 216.803 368.322 Z  M 244.775 435.59 C 244.397 435.59 244.024 435.599 243.651 435.616 C 241.228 435.713 239.349 437.759 239.446 440.182 C 239.538 442.543 241.487 444.392 243.827 444.392 C 243.888 444.392 243.95 444.392 244.011 444.387 L 252.61 444.37 C 255.038 444.37 257 442.407 257 439.98 C 257 437.552 255.038 435.59 252.61 435.59 L 244.775 435.59 Z  M 277.698 365.354 C 280.125 365.354 282.088 363.392 282.088 360.964 C 282.088 358.537 280.125 356.575 277.698 356.575 L 268.918 356.575 C 266.491 356.575 264.529 358.537 264.529 360.964 C 264.529 363.392 266.491 365.354 268.918 365.354 L 277.698 365.354 Z  M 296.508 435.59 C 294.08 435.59 292.118 437.552 292.118 439.98 C 292.118 442.407 294.08 444.37 296.508 444.37 L 305.288 444.37 C 307.715 444.37 309.677 442.407 309.677 439.98 C 309.677 437.552 307.715 435.59 305.288 435.59 L 296.508 435.59 Z  M 312.193 400.472 C 312.193 398.045 310.23 396.082 307.803 396.082 L 299.023 396.082 C 296.596 396.082 294.634 398.045 294.634 400.472 C 294.634 402.9 296.596 404.862 299.023 404.862 L 307.803 404.862 C 310.226 404.862 312.193 402.9 312.193 400.472 Z  M 270.169 444.37 L 278.949 444.37 C 281.377 444.37 283.339 442.407 283.339 439.98 C 283.339 437.552 281.377 435.59 278.949 435.59 L 270.169 435.59 C 267.742 435.59 265.78 437.552 265.78 439.98 C 265.78 442.407 267.746 444.37 270.169 444.37 Z  M 285.854 400.472 C 285.854 398.045 283.892 396.082 281.464 396.082 L 272.685 396.082 C 270.257 396.082 268.295 398.045 268.295 400.472 C 268.295 402.9 270.257 404.862 272.685 404.862 L 281.464 404.862 C 283.887 404.862 285.854 402.9 285.854 400.472 Z  M 246.346 396.082 C 243.919 396.082 241.957 398.045 241.957 400.472 C 241.957 402.9 243.919 404.862 246.346 404.862 L 255.126 404.862 C 257.553 404.862 259.516 402.9 259.516 400.472 C 259.516 398.045 257.553 396.082 255.126 396.082 L 246.346 396.082 Z  M 192.409 514.606 L 183.63 514.606 C 181.202 514.606 179.24 516.568 179.24 518.995 C 179.24 521.423 181.202 523.385 183.63 523.385 L 192.409 523.385 C 194.837 523.385 196.799 521.423 196.799 518.995 C 196.799 516.568 194.833 514.606 192.409 514.606 Z  M 166.071 514.606 L 157.291 514.606 C 154.864 514.606 152.902 516.568 152.902 518.995 C 152.902 521.423 154.864 523.385 157.291 523.385 L 166.071 523.385 C 168.498 523.385 170.461 521.423 170.461 518.995 C 170.461 516.568 168.494 514.606 166.071 514.606 Z  M 317.693 499.316 C 315.327 498.785 312.978 500.269 312.447 502.635 C 311.942 504.874 310.963 506.932 309.537 508.745 C 308.04 510.651 308.365 513.412 310.274 514.909 C 311.082 515.541 312.035 515.848 312.983 515.848 C 314.287 515.848 315.573 515.273 316.437 514.171 C 318.65 511.362 320.23 508.043 321.012 504.566 C 321.543 502.196 320.059 499.847 317.693 499.316 Z  M 312.983 491.423 C 313.931 491.423 314.892 491.116 315.691 490.484 C 317.601 488.983 317.926 486.222 316.429 484.321 C 314.221 481.516 311.372 479.198 308.18 477.613 C 305.999 476.529 303.374 477.42 302.294 479.589 C 301.214 481.762 302.101 484.395 304.269 485.475 C 306.302 486.481 308.119 487.96 309.524 489.751 C 310.393 490.848 311.679 491.423 312.983 491.423 Z  M 293.378 479.488 C 293.378 477.06 291.416 475.098 288.988 475.098 L 280.209 475.098 C 277.781 475.098 275.819 477.06 275.819 479.488 C 275.819 481.915 277.781 483.877 280.209 483.877 L 288.988 483.877 C 291.412 483.877 293.378 481.915 293.378 479.488 Z  M 297.452 514.606 L 288.98 514.606 C 286.552 514.606 284.59 516.568 284.59 518.995 C 284.59 521.423 286.552 523.385 288.98 523.385 L 297.632 523.381 L 297.759 518.991 L 297.759 523.381 C 300.187 523.381 301.995 521.419 301.995 518.991 C 301.995 516.568 299.879 514.606 297.452 514.606 Z  M 347.64 416.416 C 347.254 414.019 344.993 412.382 342.609 412.777 C 340.212 413.158 338.584 415.415 338.97 417.807 C 339.093 418.589 339.163 419.383 339.154 420.23 C 339.154 421.705 338.944 423.163 338.531 424.567 C 337.851 426.894 339.181 429.335 341.512 430.015 C 341.924 430.134 342.337 430.191 342.745 430.191 C 344.646 430.191 346.398 428.953 346.959 427.034 C 347.605 424.826 347.934 422.539 347.934 420.261 C 347.943 418.997 347.846 417.702 347.64 416.416 Z  M 209.815 391.056 C 212.115 390.297 213.37 387.816 212.615 385.512 C 212.111 383.971 211.852 382.36 211.852 380.736 C 211.856 380.073 211.896 379.41 211.975 378.765 C 212.277 376.359 210.574 374.16 208.169 373.861 C 205.688 373.585 203.564 375.271 203.265 377.667 C 203.142 378.659 203.077 379.669 203.072 380.714 C 203.072 383.295 203.476 385.832 204.271 388.255 C 204.881 390.104 206.597 391.276 208.441 391.276 C 208.897 391.276 209.363 391.21 209.815 391.056 Z  M 335.875 399.322 C 332.741 397.505 329.317 396.438 325.704 396.153 C 323.294 395.977 321.174 397.764 320.985 400.187 C 320.797 402.606 322.601 404.717 325.019 404.906 C 327.311 405.086 329.484 405.762 331.472 406.916 C 332.166 407.32 332.925 407.509 333.672 407.509 C 335.186 407.509 336.661 406.723 337.473 405.323 C 338.689 403.229 337.974 400.542 335.875 399.322 Z  M 329.725 434.4 C 327.842 435.191 325.849 435.59 323.79 435.59 L 322.847 435.59 C 320.419 435.59 318.457 437.552 318.457 439.98 C 318.457 442.407 320.419 444.37 322.847 444.37 L 323.79 444.37 C 327.021 444.37 330.16 443.737 333.119 442.495 C 335.357 441.556 336.406 438.983 335.467 436.749 C 334.532 434.515 331.942 433.461 329.725 434.4 Z  M 229.683 456.832 C 230.117 454.576 231.03 452.491 232.4 450.629 C 233.836 448.68 233.418 445.932 231.465 444.493 C 229.512 443.061 226.768 443.474 225.328 445.428 C 223.182 448.351 221.742 451.63 221.057 455.182 C 220.6 457.561 222.159 459.861 224.542 460.322 C 224.819 460.375 225.1 460.401 225.372 460.401 C 227.435 460.392 229.275 458.93 229.683 456.832 Z  M 236.562 482.095 C 238.23 482.095 239.819 481.143 240.556 479.532 C 241.561 477.324 240.596 474.72 238.392 473.715 C 236.333 472.771 234.468 471.353 233.001 469.606 C 231.439 467.749 228.673 467.508 226.816 469.071 C 224.959 470.629 224.718 473.399 226.281 475.256 C 228.581 477.991 231.505 480.221 234.74 481.696 C 235.332 481.963 235.951 482.095 236.562 482.095 Z  M 218.748 514.606 L 209.968 514.606 C 207.541 514.606 205.579 516.568 205.579 518.995 C 205.579 521.423 207.541 523.385 209.968 523.385 L 218.748 523.385 C 221.175 523.385 223.138 521.423 223.138 518.995 C 223.138 516.568 221.171 514.606 218.748 514.606 Z  M 245.086 514.606 L 236.307 514.606 C 233.879 514.606 231.917 516.568 231.917 518.995 C 231.917 521.423 233.879 523.385 236.307 523.385 L 245.086 523.385 C 247.514 523.385 249.476 521.423 249.476 518.995 C 249.476 516.568 247.51 514.606 245.086 514.606 Z  M 267.04 479.488 C 267.04 477.06 265.077 475.098 262.65 475.098 L 253.87 475.098 C 251.443 475.098 249.481 477.06 249.481 479.488 C 249.481 481.915 251.443 483.877 253.87 483.877 L 262.65 483.877 C 265.073 483.877 267.04 481.915 267.04 479.488 Z  M 271.425 514.606 L 262.645 514.606 C 260.218 514.606 258.256 516.568 258.256 518.995 C 258.256 521.423 260.218 523.385 262.645 523.385 L 271.425 523.385 C 273.853 523.385 275.815 521.423 275.815 518.995 C 275.815 516.568 273.848 514.606 271.425 514.606 Z  M 179.051 387.202 C 169.082 375.942 155.79 369.744 141.616 369.744 C 127.441 369.744 114.149 375.942 104.184 387.202 C 83.939 410.077 83.939 447.289 104.184 470.164 L 141.616 512.45 L 179.047 470.164 C 199.297 447.289 199.297 410.077 179.051 387.202 Z  M 141.616 448.759 C 127.09 448.759 115.277 436.947 115.277 422.421 C 115.277 407.895 127.09 396.082 141.616 396.082 C 156.141 396.082 167.954 407.895 167.954 422.421 C 167.954 436.947 156.141 448.759 141.616 448.759 Z  M 300.762 367.58 L 329.137 335.596 C 344.405 318.388 344.405 290.399 329.137 273.191 C 321.587 264.684 311.508 260 300.757 260 C 290.011 260 279.932 264.684 272.382 273.191 C 257.119 290.399 257.119 318.388 272.382 335.596 L 300.762 367.58 Z  M 301.842 277.559 C 315.151 277.559 325.985 288.393 325.985 301.703 C 325.985 315.012 315.151 325.846 301.842 325.846 C 288.532 325.846 277.698 315.012 277.698 301.703 C 277.698 288.393 288.532 277.559 301.842 277.559 Z " fill-rule="evenodd" fill="url(#_lgradient_37)"/></g><defs><filter id="xT6FwDrP6YoD09lID9mmZCkELUzI3WKK" x="-200%" y="-200%" width="400%" height="400%" filterUnits="objectBoundingBox" color-interpolation-filters="sRGB"><feGaussianBlur xmlns="http://www.w3.org/2000/svg" in="SourceGraphic" stdDeviation="15.027631719936599"/><feOffset xmlns="http://www.w3.org/2000/svg" dx="10" dy="5" result="pf_100_offsetBlur"/><feFlood xmlns="http://www.w3.org/2000/svg" flood-color="#000000" flood-opacity="0.25"/><feComposite xmlns="http://www.w3.org/2000/svg" in2="pf_100_offsetBlur" operator="in" result="pf_100_dropShadow"/><feBlend xmlns="http://www.w3.org/2000/svg" in="SourceGraphic" in2="pf_100_dropShadow" mode="normal"/></filter></defs><g filter="url(#xT6FwDrP6YoD09lID9mmZCkELUzI3WKK)"><text transform="matrix(1.212,0,0,1.212,22,184.36)" style="font-family:'Palanquin Dark';font-weight:400;font-size:48px;font-style:normal;fill:#ffffff;stroke:none;">Aonde</text><text transform="matrix(1.212,0,0,1.212,22,244.34)" style="font-family:'Palanquin Dark';font-weight:400;font-size:48px;font-style:normal;fill:#ffffff;stroke:none;">está?</text></g><g><defs><linearGradient id="_lgradient_38" x1="0.16431370232539816" y1="0.42533416875518965" x2="0.886644219977553" y2="0.7976190476190155"><stop offset="0.8695652173912993%" style="stop-color:#03FCE6"/><stop offset="100%" style="stop-color:#0DEB70"/></linearGradient><linearGradient id="_lgradient_39" x1="0.16431370232539816" y1="0.42533416875518965" x2="0.886644219977553" y2="0.7976190476190155"><stop offset="0.8695652173912993%" style="stop-color:#03FCE6"/><stop offset="100%" style="stop-color:#0DEB70"/></linearGradient></defs><path d="M 30.697 604 L 328.765 604 C 333.565 604 337.462 607.897 337.462 612.697 L 337.462 639.303 C 337.462 644.103 333.565 648 328.765 648 L 30.697 648 C 25.897 648 22 644.103 22 639.303 L 22 612.697 C 22 607.897 25.897 604 30.697 604 Z" style="fill:none;stroke:#000000;stroke-width:2;stroke-linecap:square;stroke-miterlimit:2;"/><text transform="matrix(1.092,0,0,1.092,29.479,630.786)" style="font-family:'Martel Sans';font-weight:400;font-size:21px;font-style:normal;fill:#2fc36d;stroke:none;">Endereço</text></g><text transform="matrix(0.731,0,0,0.731,251.27,680.124)" style="font-family:'Martel Sans';font-weight:400;font-size:21px;font-style:normal;text-decoration:underline;fill:#2fc36d;stroke:none;">Estou aqui!</text><path d=" M 29.078 26 L 19.922 33.703 L 29.078 41" fill="none" vector-effect="non-scaling-stroke" stroke-width="4" stroke="rgb(255,255,255)" stroke-linejoin="miter" stroke-linecap="square" stroke-miterlimit="3"/></g></svg>