<?xml version="1.0" encoding="UTF-8" standalone="no"?><!-- Generator: Gravit.io --><svg xmlns="http://www.w3.org/2000/svg" xmlns:xlink="http://www.w3.org/1999/xlink" style="isolation:isolate" viewBox="0 0 375 812" width="375pt" height="812pt"><defs><clipPath id="_clipPath_kutTonjt9LbekByBrFX6TPpVDCqlGXrg"><rect width="375" height="812"/></clipPath></defs><g clip-path="url(#_clipPath_kutTonjt9LbekByBrFX6TPpVDCqlGXrg)"><rect width="375" height="812" style="fill:rgb(72,72,72)"/><rect x="0" y="0" width="375" height="65" transform="matrix(1,0,0,1,0,0)" fill="rgb(46,204,113)"/><text transform="matrix(1,0,0,1,45.563,41.515)" style="font-family:'Open Sans';font-weight:700;font-size:22px;font-style:normal;fill:#ffffff;stroke:none;">Cadastrar um lugar!</text><g><circle vector-effect="non-scaling-stroke" cx="314.4345192314264" cy="737.4999999999993" r="33.5" fill="rgb(64,219,128)"/><path d=" M 311.337 728 L 322.935 737.757 L 311.337 747" fill="none" vector-effect="non-scaling-stroke" stroke-width="4" stroke="rgb(251,198,251)" stroke-linejoin="miter" stroke-linecap="square" stroke-miterlimit="3"/></g><g/><g><circle vector-effect="non-scaling-stroke" cx="55.499999999999964" cy="739.5" r="33.5" fill="rgb(64,219,128)"/><path d=" M 58.299 730 L 46.701 739.757 L 58.299 749" fill="none" vector-effect="non-scaling-stroke" stroke-width="4" stroke="rgb(251,198,251)" stroke-linejoin="miter" stroke-linecap="square" stroke-miterlimit="3"/></g><g><g/></g><path d=" M 29.078 26 L 19.922 33.703 L 29.078 41" fill="none" vector-effect="non-scaling-stroke" stroke-width="4" stroke="rgb(255,255,255)" stroke-linejoin="miter" stroke-linecap="square" stroke-miterlimit="3"/><g><defs><filter id="oxQWhMT5jUo3qVdy7ATmCQH7DWpKKCdm" x="-200%" y="-200%" width="400%" height="400%" filterUnits="objectBoundingBox" color-interpolation-filters="sRGB"><feGaussianBlur xmlns="http://www.w3.org/2000/svg" in="SourceGraphic" stdDeviation="15.027631719936599"/><feOffset xmlns="http://www.w3.org/2000/svg" dx="5" dy="5" result="pf_100_offsetBlur"/><feFlood xmlns="http://www.w3.org/2000/svg" flood-color="#000000" flood-opacity="0.25"/><feComposite xmlns="http://www.w3.org/2000/svg" in2="pf_100_offsetBlur" operator="in" result="pf_100_dropShadow"/><feBlend xmlns="http://www.w3.org/2000/svg" in="SourceGraphic" in2="pf_100_dropShadow" mode="normal"/></filter></defs><g filter="url(#oxQWhMT5jUo3qVdy7ATmCQH7DWpKKCdm)"><text transform="matrix(1.212,0,0,1.212,9.337,142.048)" style="font-family:'Palanquin Dark';font-weight:400;font-size:48px;font-style:normal;fill:#ffffff;stroke:none;">Como voce </text></g><defs><filter id="gMSs9TZtvAhcC7hv7M4BzaOoMUSa0fBD" x="-200%" y="-200%" width="400%" height="400%" filterUnits="objectBoundingBox" color-interpolation-filters="sRGB"><feGaussianBlur xmlns="http://www.w3.org/2000/svg" in="SourceGraphic" stdDeviation="15.027631719936599"/><feOffset xmlns="http://www.w3.org/2000/svg" dx="5" dy="5" result="pf_100_offsetBlur"/><feFlood xmlns="http://www.w3.org/2000/svg" flood-color="#000000" flood-opacity="0.25"/><feComposite xmlns="http://www.w3.org/2000/svg" in2="pf_100_offsetBlur" operator="in" result="pf_100_dropShadow"/><feBlend xmlns="http://www.w3.org/2000/svg" in="SourceGraphic" in2="pf_100_dropShadow" mode="normal"/></filter></defs><g filter="url(#gMSs9TZtvAhcC7hv7M4BzaOoMUSa0fBD)"><text transform="matrix(1.212,0,0,1.212,10.351,193.994)" style="font-family:'Palanquin Dark';font-weight:400;font-size:48px;font-style:normal;fill:#ffffff;stroke:none;">pode ajudar?</text></g><defs><filter id="sPdbev5ndMT0q5yjvBzNugIrM6FPbw6U" x="-200%" y="-200%" width="400%" height="400%" filterUnits="objectBoundingBox" color-interpolation-filters="sRGB"><feGaussianBlur xmlns="http://www.w3.org/2000/svg" in="SourceGraphic" stdDeviation="15.027631719936599"/><feOffset xmlns="http://www.w3.org/2000/svg" dx="5" dy="5" result="pf_100_offsetBlur"/><feFlood xmlns="http://www.w3.org/2000/svg" flood-color="#000000" flood-opacity="0.25"/><feComposite xmlns="http://www.w3.org/2000/svg" in2="pf_100_offsetBlur" operator="in" result="pf_100_dropShadow"/><feBlend xmlns="http://www.w3.org/2000/svg" in="SourceGraphic" in2="pf_100_dropShadow" mode="normal"/></filter></defs><g filter="url(#sPdbev5ndMT0q5yjvBzNugIrM6FPbw6U)"><text transform="matrix(1.212,0,0,1.212,14.054,237.812)" style="font-family:'Palanquin Dark';font-weight:400;font-size:18px;font-style:normal;fill:#ffffff;stroke:none;">pode ser com mais de uma coisa!</text></g></g><g><g><text transform="matrix(1,0,0,1,56.061,592.15)" style="font-family:'Open Sans';font-weight:400;font-size:20px;font-style:normal;fill:#ffffff;stroke:none;">F1</text><g><text transform="matrix(1,0,0,1,207.268,592.15)" style="font-family:'Open Sans';font-weight:400;font-size:20px;font-style:normal;fill:#ffffff;stroke:none;">F3</text></g><g><text transform="matrix(1,0,0,1,282.491,592.15)" style="font-family:'Open Sans';font-weight:400;font-size:20px;font-style:normal;fill:#ffffff;stroke:none;">F4</text></g><linearGradient id="_lgradient_42" x1="0.8535533905932738" y1="0.8535533905932737" x2="0.14644660940672616" y2="0.14644660940672627" gradientTransform="matrix(72.305,0,0,38.125,105.265,564.735)" gradientUnits="userSpaceOnUse"><stop offset="0%" stop-opacity="1" style="stop-color:rgb(46,204,113)"/><stop offset="99.1304347826087%" stop-opacity="1" style="stop-color:rgb(0,255,255)"/></linearGradient><rect x="105.265" y="564.735" width="72.305" height="38.125" transform="matrix(1,0,0,1,0,0)" fill="url(#_lgradient_42)"/><linearGradient id="_lgradient_43" x1="0.1464466094067262" y1="0.14644660940672627" x2="0.8535533905932737" y2="0.8535533905932737"><stop offset="0%" stop-opacity="1" style="stop-color:rgb(0,255,255)"/><stop offset="100%" stop-opacity="1" style="stop-color:rgb(46,204,113)"/></linearGradient><path d=" M 179.062 563.273 L 255.173 563.273 L 255.173 604.273 L 179.062 604.273 L 179.062 563.273 Z  M 103.966 563.273 L 180.077 563.273 L 180.077 604.273 L 103.966 604.273 L 103.966 563.273 Z  M 40.629 563.273 L 316.607 563.273 C 327.508 563.273 336.358 572.123 336.358 583.024 L 336.358 584.523 C 336.358 595.423 327.508 604.273 316.607 604.273 L 40.629 604.273 C 29.728 604.273 20.878 595.423 20.878 584.523 L 20.878 583.024 C 20.878 572.123 29.728 563.273 40.629 563.273 Z " fill-rule="evenodd" fill="none" vector-effect="non-scaling-stroke" stroke-width="3" stroke="url(#_lgradient_43)" stroke-linejoin="miter" stroke-linecap="square" stroke-miterlimit="3"/></g><text transform="matrix(1,0,0,1,131.13,591.817)" style="font-family:'Open Sans';font-weight:400;font-size:20px;font-style:normal;fill:#ffffff;stroke:none;">F1</text></g><g><defs><linearGradient id="_lgradient_44" x1="0.16431370232539816" y1="0.42533416875518965" x2="0.886644219977553" y2="0.7976190476190155"><stop offset="0.8695652173912993%" style="stop-color:#03FCE6"/><stop offset="100%" style="stop-color:#0DEB70"/></linearGradient><linearGradient id="_lgradient_45" x1="0.16431370232539816" y1="0.42533416875518965" x2="0.886644219977553" y2="0.7976190476190155"><stop offset="0.8695652173912993%" style="stop-color:#03FCE6"/><stop offset="100%" style="stop-color:#0DEB70"/></linearGradient></defs><path d="M 32.212 622 L 330.28 622 C 335.08 622 338.977 625.897 338.977 630.697 L 338.977 657.303 C 338.977 662.103 335.08 666 330.28 666 L 32.212 666 C 27.412 666 23.515 662.103 23.515 657.303 L 23.515 630.697 C 23.515 625.897 27.412 622 32.212 622 Z" style="fill:none;stroke:#000000;stroke-width:2;stroke-linecap:square;stroke-miterlimit:2;"/><text transform="matrix(1.092,0,0,1.092,30.994,648.786)" style="font-family:'Martel Sans';font-weight:400;font-size:21px;font-style:normal;fill:#2fc36d;stroke:none;">Outro...</text></g><g><circle vector-effect="non-scaling-stroke" cx="325.2085416110855" cy="375.31241682045186" r="4.685608459545733" fill="rgb(33,176,93)"/><rect x="282.29" y="428.204" width="53.35" height="1.434" transform="matrix(0.657,-0.754,0.754,0.657,-217.402,380.237)" fill="rgb(63,61,86)"/><circle vector-effect="non-scaling-stroke" cx="326.4829475299882" cy="408.8045970965795" r="7.544454037682385" fill="rgb(46,204,113)"/><path d=" M 304.889 433.601 C 304.889 433.601 319.3 415.412 300.868 402.934" fill="rgb(33,176,93)"/><path d=" M 69.744 465.54 C 95.696 513.669 150.775 534.33 150.775 534.33 C 150.775 534.33 163.778 476.958 137.826 428.829 C 111.874 380.7 56.795 360.039 56.795 360.039 C 56.795 360.039 43.792 417.411 69.744 465.54 Z " fill="rgb(33,176,93)"/><path d=" M 87.582 449.706 C 134.436 477.895 152.481 533.886 152.481 533.886 C 152.481 533.886 94.56 544.173 47.706 515.985 C 0.852 487.796 -17.193 431.805 -17.193 431.805 C -17.193 431.805 40.728 421.517 87.582 449.706 Z " fill="rgb(46,204,113)"/><path d=" M 274.005 450.104 C 226.903 477.878 208.364 533.707 208.364 533.707 C 208.364 533.707 266.191 544.506 313.292 516.733 C 360.394 488.96 378.933 433.131 378.933 433.131 C 378.933 433.131 321.106 422.331 274.005 450.104 Z " fill="rgb(33,176,93)"/><path d=" M 290.509 467.324 C 264.133 515.221 208.873 535.394 208.873 535.394 C 208.873 535.394 196.378 477.909 222.754 430.012 C 249.131 382.114 304.391 361.941 304.391 361.941 C 304.391 361.941 316.886 419.426 290.509 467.324 Z " fill="rgb(46,204,113)"/><path d=" M 205.788 330.493 C 200.143 325.388 199.352 316.808 203.969 310.757 C 203.675 311.033 203.386 311.32 203.111 311.625 C 197.688 317.623 198.154 326.88 204.151 332.303 C 210.149 337.725 219.406 337.259 224.829 331.262 C 225.105 330.957 225.361 330.642 225.607 330.321 C 220.05 335.522 211.434 335.597 205.788 330.493 Z " fill="rgb(47,46,65)"/><circle vector-effect="non-scaling-stroke" cx="192.52739245979325" cy="310.7325649231208" r="30.150795748352635" fill="rgb(47,46,65)"/><path d=" M 173.245 353.473 L 174.139 351.15 L 157.877 364.91 L 138.221 375.989 C 138.221 375.989 128.214 337.39 127.499 336.676 C 127.499 336.676 113.918 308.799 108.2 321.665 C 108.2 321.665 119.279 342.037 119.279 342.037 C 119.279 342.037 119.815 389.034 136.97 388.676 C 136.97 388.676 175.389 372.772 175.747 371.343 C 176.104 369.913 173.245 353.473 173.245 353.473 Z " fill="rgb(255,184,184)"/><circle vector-effect="non-scaling-stroke" cx="188.89117135538487" cy="323.74081017509985" r="17.869636171781792" fill="rgb(255,184,184)"/><path d=" M 182.19 340.365 C 182.19 340.365 187.13 346.826 185.61 347.586 C 185.61 347.586 175.349 348.726 170.029 355.187 C 170.029 355.187 176.489 377.989 176.489 377.989 L 221.333 347.966 L 203.092 341.885 C 203.092 341.885 190.55 335.045 190.931 327.824 L 182.19 340.365 Z " fill="rgb(255,184,184)"/><path d=" M 238.389 535.939 L 190.772 535.939 C 188.075 516.218 186.827 498.145 186.827 498.145 C 186.827 498.145 186.131 516.324 184.28 535.939 L 123.105 535.939 C 131.776 477.858 172.887 414.874 172.887 414.874 C 172.887 414.874 173.245 406.295 174.318 404.864 C 175.391 403.438 168.242 403.08 165.023 392.359 C 163.06 385.814 164.824 381.532 166.502 379.192 C 167.078 378.349 167.786 377.605 168.6 376.988 C 168.6 376.988 169.315 369.486 168.6 368.413 C 168.508 368.273 169.213 367.78 170.519 367.03 C 171.606 366.402 173.109 365.595 174.908 364.667 C 185.208 359.326 205.147 349.876 211.977 346.656 C 213.476 345.946 214.346 345.54 214.346 345.54 L 226.498 349.827 C 236.146 353.042 236.146 373.416 236.146 373.416 L 235.6 374.247 L 221.016 396.337 L 212.557 409.156 C 214.703 410.582 210.416 419.52 210.416 419.52 C 210.416 419.52 216.526 428.298 221.495 441.697 C 224.305 449.154 226.221 456.918 227.203 464.826 C 227.83 469.951 227.953 475.125 227.571 480.274 C 226.246 497.492 232.134 518.417 238.389 535.939 Z " fill="rgb(47,46,65)"/><path d=" M 226.669 351.934 C 225.867 351.483 224.907 351.409 224.046 351.731 C 223.184 352.053 222.508 352.739 222.199 353.605 C 221.123 356.564 220.032 362.733 220.421 375.559 C 221.136 399.147 221.493 415.23 221.493 415.23 L 221.493 450.969 C 221.493 450.969 205.768 485.279 214.345 485.279 C 222.923 485.279 228.998 458.117 228.998 458.117 C 228.998 458.117 236.861 417.017 234.359 409.869 C 234.359 409.869 241.413 360.489 226.669 351.934 Z " fill="rgb(255,184,184)"/><ellipse vector-effect="non-scaling-stroke" cx="186.79374524837735" cy="307.88453717334147" rx="15.336819058746812" ry="10.456924722074746" fill="rgb(47,46,65)"/><circle vector-effect="non-scaling-stroke" cx="211.14908521909" cy="285.04247507943137" r="14.639692677423227" fill="rgb(47,46,65)"/><path d=" M 221.606 295.499 C 213.995 295.498 207.654 289.665 207.021 282.08 C 206.988 282.482 206.966 282.888 206.966 283.3 C 206.966 291.385 213.521 297.939 221.606 297.939 C 229.691 297.939 236.246 291.385 236.246 283.3 C 236.246 282.888 236.224 282.482 236.191 282.08 C 235.558 289.665 229.217 295.498 221.606 295.499 Z " fill="rgb(47,46,65)"/><path d=" M 204.472 318.134 C 204.105 316.6 204.353 315.223 205.024 315.063 C 205.696 314.903 206.539 316.018 206.905 317.553 C 207.272 319.088 207.024 320.464 206.353 320.625 C 205.681 320.785 204.839 319.669 204.472 318.134 Z " fill="rgb(255,184,184)"/><circle vector-effect="non-scaling-stroke" cx="206.22471597682392" cy="319.630794290623" r="0.7147839000861609" fill="rgb(242,242,242)"/></g></g></svg>