<?xml version="1.0" encoding="UTF-8" standalone="no"?><!-- Generator: Gravit.io --><svg xmlns="http://www.w3.org/2000/svg" xmlns:xlink="http://www.w3.org/1999/xlink" style="isolation:isolate" viewBox="0 0 2000 2000" width="2000pt" height="2000pt"><defs><clipPath id="_clipPath_4PEZuwSCdJpGoySBhwWg1FI6yxVz4fC5"><rect width="2000" height="2000"/></clipPath></defs><g clip-path="url(#_clipPath_4PEZuwSCdJpGoySBhwWg1FI6yxVz4fC5)"><rect width="2000" height="2000" style="fill:rgb(72,72,72)"/><g filter="url(#tFGPGf276XqDANr7Gp4znuUsP2lPsVKy)"><circle vector-effect="non-scaling-stroke" cx="299.37342256246586" cy="163.61075554071934" r="42.61075554071931" fill="rgb(46,204,113)"/><path d=" M 83.684 380.179 Q 316.506 99.036 576.563 288.807 L 576.563 288.807 Q 436.87 247.514 386.791 260.693 L 386.791 260.693 C 384.802 295.776 387.157 327.124 393.82 354.7 Q 443.899 421.635 454.441 447.992 Q 464.984 474.349 419.299 583 L 419.299 583 C 428.614 469.253 405.801 417.283 350.77 389.843 Q 343.741 447.829 320.02 485.607 Q 296.298 523.386 202.291 573.336 Q 294.541 470.672 288.391 426.743 Q 282.241 382.815 251.491 288.807 Q 110.477 363.56 83.684 380.179 Z " fill="rgb(46,204,113)"/></g><defs><filter id="tFGPGf276XqDANr7Gp4znuUsP2lPsVKy" x="-200%" y="-200%" width="400%" height="400%" filterUnits="objectBoundingBox" color-interpolation-filters="sRGB"><feGaussianBlur xmlns="http://www.w3.org/2000/svg" in="SourceGraphic" stdDeviation="2.146804531419514"/><feOffset xmlns="http://www.w3.org/2000/svg" dx="-10" dy="10" result="pf_100_offsetBlur"/><feFlood xmlns="http://www.w3.org/2000/svg" flood-color="#000000" flood-opacity="0.35"/><feComposite xmlns="http://www.w3.org/2000/svg" in2="pf_100_offsetBlur" operator="in" result="pf_100_dropShadow"/><feBlend xmlns="http://www.w3.org/2000/svg" in="SourceGraphic" in2="pf_100_dropShadow" mode="normal"/></filter></defs><g filter="url(#xBFJjcWulbhdbdHWN0BvlBaBBODzgw7F)"><rect x="1142.889" y="407.502" width="46.638" height="175.498" transform="matrix(1,0,0,1,0,0)" fill="rgb(46,204,113)"/><circle vector-effect="non-scaling-stroke" cx="1165.8630767311602" cy="372.7821519086258" r="23.66462217626804" fill="rgb(46,204,113)"/><path d=" M 1123.788 407.502 C 1097.71 419.583 1116.062 436.485 1112.462 451.939 C 1104.038 488.111 1109.919 517.139 1141.996 529.59 L 1160.66 512.453 L 1160.66 407.502 L 1123.788 407.502 Z " fill="rgb(46,204,113)" vector-effect="non-scaling-stroke" stroke-width="1" stroke="rgb(46,204,113)" stroke-linejoin="miter" stroke-linecap="square" stroke-miterlimit="3"/><path d=" M 1229.868 583 L 1354.968 115.235 L 1408.719 115.235 L 1526.78 115.235 L 1518.142 519.01 Q 1400.401 83.56 1408.719 115.235 L 1518.142 480.936 L 1518.142 480.936 Q 1526.46 108.836 1526.78 115.235 L 1640.682 115.235 L 1526.78 519.01 Q 1533.819 476.777 1549.177 426.545 L 1549.177 426.545 L 1640.682 115.235 L 1694.433 115.235 L 1818.894 583 L 1761.303 583 L 1687.395 294.086 L 1687.395 294.086 Q 1672.037 233.296 1664.998 184.024 L 1664.998 184.024 L 1664.998 184.024 Q 1656.36 242.575 1639.402 298.566 L 1639.402 298.566 L 1555.576 583 L 1497.985 583 L 1409.999 296.006 L 1409.999 296.006 Q 1394.642 246.414 1384.083 184.024 L 1384.083 184.024 L 1384.083 184.024 Q 1378.004 229.457 1361.047 294.726 L 1361.047 294.726 L 1287.459 583 L 1229.868 583 Z " fill="rgb(46,204,113)"/></g><defs><filter id="xBFJjcWulbhdbdHWN0BvlBaBBODzgw7F" x="-200%" y="-200%" width="400%" height="400%" filterUnits="objectBoundingBox" color-interpolation-filters="sRGB"><feGaussianBlur xmlns="http://www.w3.org/2000/svg" in="SourceGraphic" stdDeviation="2.146804531419514"/><feOffset xmlns="http://www.w3.org/2000/svg" dx="-10" dy="10" result="pf_100_offsetBlur"/><feFlood xmlns="http://www.w3.org/2000/svg" flood-color="#000000" flood-opacity="0.35"/><feComposite xmlns="http://www.w3.org/2000/svg" in2="pf_100_offsetBlur" operator="in" result="pf_100_dropShadow"/><feBlend xmlns="http://www.w3.org/2000/svg" in="SourceGraphic" in2="pf_100_dropShadow" mode="normal"/></filter></defs><g><g filter="url(#wpgR9QbX3AQbjkzTk2dUU1lHgIPQkmpf)"><rect x="558.719" y="1010.581" width="135" height="508" transform="matrix(1,0,0,1,0,0)" fill="rgb(46,204,113)"/><circle vector-effect="non-scaling-stroke" cx="625.2185116765296" cy="910.0805914190026" r="68.49999999999989" fill="rgb(46,204,113)"/><path d=" M 558.719 1125.223 L 558.719 1010.581 Q 442.165 1014.402 463.183 1125.223 L 463.183 1125.223 L 558.719 1125.223 L 558.719 1346.866 Q 444.076 1350.688 463.183 1274.259 Q 444.076 1232.223 463.183 1209.295 Q 440.254 1157.706 463.183 1125.223" fill="rgb(46,204,113)" vector-effect="non-scaling-stroke" stroke-width="1" stroke="rgb(46,204,113)" stroke-linejoin="miter" stroke-linecap="square" stroke-miterlimit="3"/><path d=" M 558.719 909.439 L 755.719 909.439 C 731.028 912.943 680.739 902.788 682.719 861.939 C 683.388 848.133 654.064 842.309 594.719 844.439 L 558.719 909.439 Z " fill="rgb(46,204,113)" vector-effect="non-scaling-stroke" stroke-width="1" stroke="rgb(46,204,113)" stroke-linejoin="miter" stroke-linecap="square" stroke-miterlimit="3"/></g><defs><filter id="wpgR9QbX3AQbjkzTk2dUU1lHgIPQkmpf" x="-200%" y="-200%" width="400%" height="400%" filterUnits="objectBoundingBox" color-interpolation-filters="sRGB"><feGaussianBlur xmlns="http://www.w3.org/2000/svg" in="SourceGraphic" stdDeviation="2.146804531419514"/><feOffset xmlns="http://www.w3.org/2000/svg" dx="-10" dy="10" result="pf_100_offsetBlur"/><feFlood xmlns="http://www.w3.org/2000/svg" flood-color="#000000" flood-opacity="0.35"/><feComposite xmlns="http://www.w3.org/2000/svg" in2="pf_100_offsetBlur" operator="in" result="pf_100_dropShadow"/><feBlend xmlns="http://www.w3.org/2000/svg" in="SourceGraphic" in2="pf_100_dropShadow" mode="normal"/></filter></defs><g filter="url(#o3fEb84YTvQN0zQUSUDzwxvkUFpkGrWR)"><rect x="229.282" y="1190.869" width="87.089" height="327.712" transform="matrix(1,0,0,1,0,0)" fill="rgb(46,204,113)"/><circle vector-effect="non-scaling-stroke" cx="272.1816647812199" cy="1126.0362135866303" r="44.18946570504107" fill="rgb(46,204,113)"/><path d=" M 193.615 1190.869 C 144.917 1213.429 179.186 1244.99 172.465 1273.847 C 156.734 1341.392 167.717 1395.596 227.615 1418.847 L 262.465 1386.847 L 262.465 1190.869 L 193.615 1190.869 Z " fill="rgb(46,204,113)" vector-effect="non-scaling-stroke" stroke-width="1" stroke="rgb(46,204,113)" stroke-linejoin="miter" stroke-linecap="square" stroke-miterlimit="3"/></g><defs><filter id="o3fEb84YTvQN0zQUSUDzwxvkUFpkGrWR" x="-200%" y="-200%" width="400%" height="400%" filterUnits="objectBoundingBox" color-interpolation-filters="sRGB"><feGaussianBlur xmlns="http://www.w3.org/2000/svg" in="SourceGraphic" stdDeviation="2.146804531419514"/><feOffset xmlns="http://www.w3.org/2000/svg" dx="-10" dy="10" result="pf_100_offsetBlur"/><feFlood xmlns="http://www.w3.org/2000/svg" flood-color="#000000" flood-opacity="0.35"/><feComposite xmlns="http://www.w3.org/2000/svg" in2="pf_100_offsetBlur" operator="in" result="pf_100_dropShadow"/><feBlend xmlns="http://www.w3.org/2000/svg" in="SourceGraphic" in2="pf_100_dropShadow" mode="normal"/></filter></defs><defs><filter id="U2kQRfopGzFZTmCWEWhCw9DWWrHoWhKT" x="-200%" y="-200%" width="400%" height="400%" filterUnits="objectBoundingBox" color-interpolation-filters="sRGB"><feGaussianBlur xmlns="http://www.w3.org/2000/svg" in="SourceGraphic" stdDeviation="2.146804531419514"/><feOffset xmlns="http://www.w3.org/2000/svg" dx="-10" dy="10" result="pf_100_offsetBlur"/><feFlood xmlns="http://www.w3.org/2000/svg" flood-color="#000000" flood-opacity="0.35"/><feComposite xmlns="http://www.w3.org/2000/svg" in2="pf_100_offsetBlur" operator="in" result="pf_100_dropShadow"/><feBlend xmlns="http://www.w3.org/2000/svg" in="SourceGraphic" in2="pf_100_dropShadow" mode="normal"/></filter></defs><g filter="url(#U2kQRfopGzFZTmCWEWhCw9DWWrHoWhKT)"><text transform="matrix(1.891,-0.007,0.009,2.283,184.281,1589.162)" style="font-family:'Staatliches';font-weight:400;font-size:72px;font-style:normal;fill:#2ecc71;stroke:none;">imigrantes</text></g></g><g><g filter="url(#XJroOTWGTJMHwHNCEHsMowrbYOhwTOby)"><ellipse vector-effect="non-scaling-stroke" cx="1471.7856516470717" cy="978.0764921401674" rx="61.372255095949185" ry="56.076492140167375" fill="rgb(46,204,113)"/><path d=" M 1161.128 1263.084 Q 1496.461 893.095 1871.022 1142.837 L 1871.022 1142.837 Q 1669.822 1088.495 1597.694 1105.838 L 1597.694 1105.838 C 1594.828 1152.008 1598.22 1193.262 1607.817 1229.554 Q 1679.945 1317.641 1695.13 1352.327 Q 1710.315 1387.013 1644.514 1530 L 1644.514 1530 C 1657.931 1380.306 1625.073 1311.913 1545.812 1275.802 Q 1535.689 1352.112 1501.523 1401.83 Q 1467.357 1451.547 1331.958 1517.282 Q 1464.826 1382.174 1455.968 1324.363 Q 1447.11 1266.552 1402.821 1142.837 Q 1199.719 1241.214 1161.128 1263.084 Z " fill="rgb(46,204,113)"/></g><defs><filter id="XJroOTWGTJMHwHNCEHsMowrbYOhwTOby" x="-200%" y="-200%" width="400%" height="400%" filterUnits="objectBoundingBox" color-interpolation-filters="sRGB"><feGaussianBlur xmlns="http://www.w3.org/2000/svg" in="SourceGraphic" stdDeviation="2.146804531419514"/><feOffset xmlns="http://www.w3.org/2000/svg" dx="-10" dy="10" result="pf_100_offsetBlur"/><feFlood xmlns="http://www.w3.org/2000/svg" flood-color="#000000" flood-opacity="0.35"/><feComposite xmlns="http://www.w3.org/2000/svg" in2="pf_100_offsetBlur" operator="in" result="pf_100_dropShadow"/><feBlend xmlns="http://www.w3.org/2000/svg" in="SourceGraphic" in2="pf_100_dropShadow" mode="normal"/></filter></defs><defs><filter id="nJWTWGHLvMgYkCz89kc04XhJv4CoR3UG" x="-200%" y="-200%" width="400%" height="400%" filterUnits="objectBoundingBox" color-interpolation-filters="sRGB"><feGaussianBlur xmlns="http://www.w3.org/2000/svg" in="SourceGraphic" stdDeviation="2.146804531419514"/><feOffset xmlns="http://www.w3.org/2000/svg" dx="-10" dy="10" result="pf_100_offsetBlur"/><feFlood xmlns="http://www.w3.org/2000/svg" flood-color="#000000" flood-opacity="0.35"/><feComposite xmlns="http://www.w3.org/2000/svg" in2="pf_100_offsetBlur" operator="in" result="pf_100_dropShadow"/><feBlend xmlns="http://www.w3.org/2000/svg" in="SourceGraphic" in2="pf_100_dropShadow" mode="normal"/></filter></defs><g filter="url(#nJWTWGHLvMgYkCz89kc04XhJv4CoR3UG)"><text transform="matrix(1,0,0,1,1324.18,1674.212)" style="font-family:'Vampiro One';font-weight:400;font-size:177px;font-style:normal;fill:#2ecc71;stroke:none;">Savi</text></g></g><g><circle vector-effect="non-scaling-stroke" cx="170.28124999999994" cy="725.5" r="13.999999999999943" fill="rgb(64,219,128)"/><rect x="168.888" y="717.978" width="2.786" height="15.045" transform="matrix(1,0,0,1,0,0)" fill="rgb(235,235,235)"/><rect x="168.888" y="717.978" width="2.786" height="15.045" transform="matrix(0,1,-1,0,895.781,555.219)" fill="rgb(235,235,235)"/><circle vector-effect="non-scaling-stroke" cx="170.28124999999986" cy="725.3606965174126" r="5.499229919676878" fill="rgb(235,235,235)"/><circle vector-effect="non-scaling-stroke" cx="170.28125" cy="725.3606965174127" r="4.91227936911298" fill="rgb(64,219,128)"/><circle vector-effect="non-scaling-stroke" cx="170.28125" cy="725.3606965174129" r="2.8444292687984216" fill="rgb(235,235,235)"/></g></g></svg>