<?xml version="1.0" encoding="UTF-8" standalone="no"?><!-- Generator: Gravit.io --><svg xmlns="http://www.w3.org/2000/svg" xmlns:xlink="http://www.w3.org/1999/xlink" style="isolation:isolate" viewBox="0 0 375 812" width="375pt" height="812pt"><defs><clipPath id="_clipPath_9PEA5pBz4Y0T585lUINhqH28Bua1Xl7W"><rect width="375" height="812"/></clipPath></defs><g clip-path="url(#_clipPath_9PEA5pBz4Y0T585lUINhqH28Bua1Xl7W)"><rect width="375" height="812" style="fill:rgb(39,174,96)"/><g><defs><filter id="zCxhUMZ8ZHPN7hR6fTCKHykIXw7oAe42" x="-200%" y="-200%" width="400%" height="400%" filterUnits="objectBoundingBox" color-interpolation-filters="sRGB"><feGaussianBlur xmlns="http://www.w3.org/2000/svg" in="SourceGraphic" stdDeviation="2.146804531419514"/><feOffset xmlns="http://www.w3.org/2000/svg" dx="-5" dy="5" result="pf_100_offsetBlur"/><feFlood xmlns="http://www.w3.org/2000/svg" flood-color="#000000" flood-opacity="0.16"/><feComposite xmlns="http://www.w3.org/2000/svg" in2="pf_100_offsetBlur" operator="in" result="pf_100_dropShadow"/><feBlend xmlns="http://www.w3.org/2000/svg" in="SourceGraphic" in2="pf_100_dropShadow" mode="normal"/></filter></defs><g filter="url(#zCxhUMZ8ZHPN7hR6fTCKHykIXw7oAe42)"><circle vector-effect="non-scaling-stroke" cx="310.62499999999994" cy="738.4999999999999" r="33.5" fill="rgb(64,219,128)"/></g><g><g><path d=" M 323.141 747.999 L 317.594 742.452 C 317.565 742.423 317.53 742.402 317.5 742.375 C 318.591 740.719 319.228 738.737 319.228 736.606 C 319.228 730.809 314.528 726.109 308.731 726.109 C 302.934 726.109 298.234 730.809 298.234 736.606 C 298.234 742.403 302.934 747.103 308.731 747.103 C 310.862 747.103 312.844 746.466 314.499 745.375 C 314.527 745.405 314.547 745.44 314.577 745.469 L 320.124 751.016 C 320.957 751.849 322.308 751.849 323.141 751.016 C 323.974 750.183 323.974 748.832 323.141 747.999 Z  M 308.731 743.464 C 304.943 743.464 301.873 740.394 301.873 736.606 C 301.873 732.818 304.943 729.748 308.731 729.748 C 312.518 729.748 315.589 732.818 315.589 736.606 C 315.589 740.394 312.518 743.464 308.731 743.464 Z " fill="rgb(253,252,252)"/></g></g></g><g><defs><filter id="FzmCqZH9jWVrm5Yc5KOTCIiof7SQc0TF" x="-200%" y="-200%" width="400%" height="400%" filterUnits="objectBoundingBox" color-interpolation-filters="sRGB"><feGaussianBlur xmlns="http://www.w3.org/2000/svg" in="SourceGraphic" stdDeviation="2.146804531419514"/><feOffset xmlns="http://www.w3.org/2000/svg" dx="-5" dy="5" result="pf_100_offsetBlur"/><feFlood xmlns="http://www.w3.org/2000/svg" flood-color="#000000" flood-opacity="0.16"/><feComposite xmlns="http://www.w3.org/2000/svg" in2="pf_100_offsetBlur" operator="in" result="pf_100_dropShadow"/><feBlend xmlns="http://www.w3.org/2000/svg" in="SourceGraphic" in2="pf_100_dropShadow" mode="normal"/></filter></defs><g filter="url(#FzmCqZH9jWVrm5Yc5KOTCIiof7SQc0TF)"><circle vector-effect="non-scaling-stroke" cx="64.37500000000006" cy="738.5" r="33.5" fill="rgb(64,219,128)"/></g><g><path d="M 53.686 727.25 L 75.064 727.25 C 77.438 727.25 79.365 729.177 79.365 731.55 L 79.365 742.062 C 79.365 744.435 77.438 746.362 75.064 746.362 L 53.686 746.362 C 51.312 746.362 49.385 744.435 49.385 742.062 L 49.385 731.55 C 49.385 729.177 51.312 727.25 53.686 727.25 Z" style="stroke:none;fill:#EBEBEB;stroke-miterlimit:10;"/><path d=" M 49.385 742.02 L 55.077 742.975 L 53.315 746.362 L 49.385 749.75 L 49.385 742.02 Z " fill="rgb(235,235,235)"/><rect x="54.67" y="731.857" width="19.936" height="3.388" transform="matrix(1,0,0,1,0,0)" fill="rgb(64,219,128)"/><rect x="54.67" y="738.226" width="19.936" height="3.388" transform="matrix(1,0,0,1,0,0)" fill="rgb(64,219,128)"/></g></g><g><linearGradient id="_lgradient_1" x1="0.5" y1="0.026439625934945088" x2="0.49999999999999983" y2="1" gradientTransform="matrix(-49.169,0,0,88.878,279.169,370.122)" gradientUnits="userSpaceOnUse"><stop offset="0%" stop-opacity="1" style="stop-color:rgb(0,255,255)"/><stop offset="99.1304347826087%" stop-opacity="1" style="stop-color:rgb(46,204,113)"/></linearGradient><path d=" M 279.169 394.707 C 279.169 381.138 268.153 370.122 254.585 370.122 C 241.016 370.122 230 381.138 230 394.707 C 230 408.275 253.621 458.036 254.585 459 C 255.227 458.357 279.169 408.275 279.169 394.707 Z " fill="url(#_lgradient_1)"/><path d=" M 259.154 391.144 C 258.973 391.216 258.809 391.327 258.676 391.473 L 258.676 391.473 L 258.676 391.473 L 258.676 391.473 L 258.676 391.473 L 258.676 391.473 C 258.523 391.64 258.534 391.901 258.702 392.054 C 258.87 392.207 259.13 392.196 259.284 392.028 C 259.369 391.934 259.486 391.881 259.613 391.879 C 259.868 391.875 260.075 392.077 260.079 392.329 C 260.081 392.459 260.144 392.575 260.24 392.648 C 260.229 392.703 260.213 392.757 260.194 392.81 L 260.194 392.81 C 260.122 393.011 260.216 393.233 260.409 393.323 C 260.924 393.56 261.217 394.116 261.12 394.675 C 261.079 394.909 260.975 395.118 260.828 395.286 C 260.794 395.039 260.731 394.793 260.636 394.554 C 260.611 394.491 260.574 394.434 260.525 394.385 C 260.477 394.337 260.42 394.3 260.357 394.275 C 259.984 394.126 259.593 394.051 259.193 394.051 C 258.556 394.051 257.947 394.241 257.431 394.592 C 257.326 394.337 257.076 394.157 256.784 394.157 L 254.437 394.157 C 254.373 393.766 254.204 393.41 253.961 393.118 C 254.143 392.71 254.535 392.421 254.995 392.38 C 255.207 392.361 255.37 392.184 255.37 391.971 C 255.37 391.898 255.376 391.826 255.388 391.757 C 255.493 391.156 256.011 390.72 256.621 390.72 C 256.693 390.72 256.766 390.726 256.838 390.739 C 257.182 390.799 257.477 390.992 257.67 391.284 C 257.733 391.378 257.832 391.442 257.943 391.462 C 258.055 391.481 258.169 391.454 258.26 391.386 C 258.479 391.222 258.738 391.136 259.009 391.136 C 259.057 391.136 259.106 391.139 259.154 391.144 Z  M 254.87 390.052 L 254.87 390.052 C 254.96 389.895 254.937 389.692 254.804 389.558 L 254.416 389.169 C 254.282 389.035 254.079 389.013 253.922 389.102 L 253.247 388.425 C 253.115 388.293 252.939 388.22 252.753 388.22 C 252.566 388.22 252.39 388.293 252.258 388.425 C 251.807 388.877 251.485 389.409 251.289 389.976 C 250.754 389.637 250.133 389.455 249.485 389.455 C 249.055 389.455 248.633 389.536 248.232 389.695 C 248.168 389.721 248.11 389.759 248.061 389.808 C 248.01 389.86 247.972 389.918 247.947 389.982 C 247.714 390.57 247.655 391.195 247.755 391.794 C 247.611 391.763 247.462 391.747 247.309 391.747 C 246.149 391.747 245.198 392.664 245.141 393.813 C 245.09 393.81 245.04 393.809 244.988 393.809 C 244.589 393.809 244.198 393.884 243.825 394.033 C 243.761 394.058 243.705 394.095 243.657 394.143 C 243.608 394.192 243.571 394.249 243.546 394.313 C 243.235 395.097 243.257 395.953 243.571 396.701 C 243.33 396.808 243.162 397.049 243.162 397.329 C 243.162 397.96 243.219 398.58 243.329 399.188 C 243.228 399.175 243.125 399.181 243.026 399.207 C 242.824 399.26 242.649 399.396 242.547 399.577 L 242.248 400.107 C 242.205 400.183 242.176 400.263 242.16 400.347 C 242.104 400.655 242.235 400.964 242.494 401.137 L 243.482 401.798 L 241.3 401.397 C 241.253 401.388 241.205 401.384 241.158 401.384 C 240.782 401.384 240.459 401.652 240.391 402.022 L 240.283 402.6 L 240.283 402.6 C 240.246 402.805 240.29 403.012 240.408 403.184 C 240.526 403.355 240.704 403.471 240.91 403.509 L 243.09 403.909 L 241.93 404.175 C 241.626 404.245 241.393 404.487 241.337 404.793 C 241.321 404.878 241.32 404.964 241.333 405.049 L 241.422 405.647 C 241.453 405.855 241.568 406.044 241.74 406.167 C 241.873 406.262 242.03 406.312 242.194 406.312 C 242.24 406.312 242.287 406.308 242.333 406.3 L 245.623 405.708 C 245.537 406.245 245.686 406.79 246.036 407.209 C 246.396 407.639 246.925 407.887 247.487 407.887 L 263.96 407.892 C 266.39 407.892 268.367 406.059 268.367 403.807 C 268.367 402.662 267.855 401.626 267.033 400.884 L 267.033 388.872 C 267.033 387.812 266.181 386.948 265.128 386.93 L 265.128 386.058 C 265.45 386.002 265.697 385.721 265.697 385.382 L 265.697 383.405 C 265.697 383.027 265.389 382.719 265.011 382.719 L 261.664 382.719 C 261.286 382.719 260.978 383.027 260.978 383.405 L 260.978 385.382 C 260.978 385.721 261.224 386.002 261.547 386.058 L 261.547 386.93 C 260.493 386.949 259.641 387.812 259.641 388.872 L 259.641 390.411 C 259.553 390.383 259.461 390.36 259.367 390.344 C 258.94 390.269 258.495 390.333 258.106 390.521 C 257.804 390.213 257.409 390.003 256.979 389.928 C 256.861 389.908 256.74 389.897 256.621 389.897 C 256.094 389.897 255.609 390.094 255.24 390.423 L 254.87 390.052 Z  M 255.992 394.98 L 255.992 394.98 C 256.032 395.166 256.197 395.305 256.394 395.305 L 256.629 395.305 C 256.562 395.793 256.387 396.246 256.13 396.641 L 255.292 396.641 C 255.272 396.599 255.245 396.559 255.211 396.524 L 254.823 396.136 C 254.662 395.975 254.402 395.974 254.241 396.135 C 254.103 396.272 254.083 396.483 254.181 396.641 L 253.761 396.641 C 253.701 396.488 253.553 396.38 253.378 396.38 C 253.204 396.38 253.056 396.488 252.995 396.641 L 252.639 396.641 L 252.639 396.641 C 252.736 396.483 252.717 396.272 252.579 396.135 C 252.418 395.974 252.157 395.975 251.997 396.136 L 251.609 396.524 C 251.574 396.559 251.547 396.599 251.528 396.641 L 250.656 396.641 C 250.342 396.16 250.151 395.592 250.128 394.98 L 251.786 394.98 L 251.786 394.98 C 251.826 395.166 251.991 395.305 252.188 395.305 L 252.737 395.305 C 252.935 395.305 253.1 395.166 253.139 394.98 L 255.992 394.98 Z  M 256.486 392.814 C 256.612 392.517 256.858 392.283 257.16 392.172 C 257.768 391.948 258.445 392.259 258.671 392.866 C 258.75 393.079 258.641 393.316 258.428 393.395 C 258.381 393.413 258.332 393.421 258.285 393.421 C 258.118 393.421 257.96 393.318 257.899 393.152 C 257.831 392.97 257.627 392.877 257.445 392.944 C 257.354 392.978 257.282 393.046 257.244 393.136 C 257.155 393.345 256.913 393.443 256.704 393.354 C 256.495 393.265 256.397 393.023 256.486 392.814 L 256.486 392.814 L 256.486 392.814 L 256.486 392.814 L 256.486 392.814 Z  M 274.188 396.451 C 274.188 385.632 265.404 376.848 254.585 376.848 C 243.765 376.848 234.981 385.632 234.981 396.451 C 234.981 407.271 243.765 416.055 254.585 416.055 C 265.404 416.055 274.188 407.271 274.188 396.451 L 274.188 396.451 L 274.188 396.451 L 274.188 396.451 L 274.188 396.451 L 274.188 396.451 Z  M 244.988 394.632 C 244.741 394.632 244.497 394.671 244.263 394.749 C 244.054 395.386 244.132 396.073 244.46 396.641 L 245.568 396.641 L 245.215 396.287 C 245.054 396.126 245.054 395.865 245.215 395.705 C 245.376 395.544 245.637 395.544 245.797 395.705 L 245.985 395.893 C 246.072 395.604 246.225 395.345 246.427 395.133 C 246.018 394.809 245.517 394.632 244.988 394.632 L 244.988 394.632 Z  M 247.309 392.57 C 246.566 392.57 245.962 393.177 245.962 393.922 C 245.962 393.936 245.962 393.95 245.963 393.963 C 246.396 394.104 246.796 394.34 247.137 394.66 C 247.192 394.64 247.247 394.62 247.303 394.605 C 247.424 393.954 247.862 393.433 248.441 393.19 C 248.201 392.817 247.784 392.57 247.309 392.57 L 247.309 392.57 Z  M 249.485 390.278 C 249.205 390.278 248.931 390.323 248.666 390.412 C 248.453 391.045 248.497 391.724 248.768 392.313 C 248.991 392.516 249.172 392.764 249.295 393.044 C 249.369 393.048 249.442 393.056 249.515 393.069 C 249.837 393.125 250.138 393.265 250.39 393.468 C 250.475 393.311 250.58 393.166 250.701 393.036 L 249.757 392.09 C 249.596 391.929 249.597 391.668 249.758 391.508 C 249.919 391.347 250.179 391.348 250.34 391.508 L 251.371 392.542 C 251.568 392.45 251.78 392.385 252.003 392.355 C 251.906 391.864 251.668 391.401 251.299 391.031 C 250.814 390.545 250.17 390.278 249.485 390.278 L 249.485 390.278 Z  M 253.596 394.157 C 253.441 393.582 252.916 393.158 252.295 393.158 C 251.673 393.158 251.149 393.582 250.994 394.157 L 253.596 394.157 L 253.596 394.157 Z  M 252.754 389.097 C 252.363 389.52 252.104 390.022 251.977 390.55 C 252.187 390.778 252.362 391.031 252.499 391.299 C 252.562 391.261 252.635 391.238 252.714 391.238 L 253.262 391.238 C 253.489 391.238 253.674 391.423 253.674 391.65 C 253.674 391.877 253.489 392.061 253.262 392.061 L 252.781 392.061 C 252.808 392.175 252.829 392.29 252.844 392.406 C 253.008 392.449 253.164 392.51 253.31 392.588 C 253.584 392.114 254.039 391.762 254.577 391.62 C 254.577 391.619 254.577 391.618 254.577 391.617 C 254.61 391.43 254.666 391.254 254.743 391.09 L 252.754 389.097 L 252.754 389.097 Z  M 258.967 396.529 L 258.855 396.641 L 259.843 396.641 C 260.065 396.126 260.099 395.54 259.919 394.991 C 259.684 394.913 259.441 394.874 259.193 394.874 C 258.573 394.874 257.99 395.117 257.551 395.557 C 257.492 395.615 257.438 395.676 257.387 395.74 C 257.317 396.056 257.21 396.357 257.072 396.641 L 257.692 396.641 L 258.385 395.947 C 258.545 395.786 258.806 395.786 258.967 395.947 C 259.127 396.107 259.128 396.368 258.967 396.529 L 258.967 396.529 Z  M 260.72 396.641 L 262.187 396.641 C 262.122 396.243 261.882 395.903 261.549 395.702 C 261.352 395.966 261.095 396.18 260.798 396.324 C 260.778 396.431 260.752 396.537 260.72 396.641 L 260.72 396.641 Z  M 264.873 383.542 L 261.801 383.542 L 261.801 385.245 L 264.873 385.245 L 264.873 383.542 L 264.873 383.542 Z  M 262.37 386.068 L 262.37 386.929 L 264.305 386.929 L 264.305 386.068 L 262.37 386.068 L 262.37 386.068 Z  M 266.21 390.541 L 263.537 390.541 C 263.31 390.541 263.126 390.357 263.126 390.13 C 263.126 389.902 263.31 389.718 263.537 389.718 L 266.21 389.718 L 266.21 388.872 C 266.21 388.255 265.709 387.753 265.094 387.753 L 261.58 387.753 C 260.965 387.753 260.464 388.255 260.464 388.872 L 260.464 389.718 L 261.233 389.718 C 261.46 389.718 261.644 389.902 261.644 390.13 C 261.644 390.357 261.46 390.541 261.233 390.541 L 260.464 390.541 L 260.464 390.907 C 260.936 391.369 261.181 392.047 261.06 392.744 C 261.06 392.746 261.059 392.747 261.059 392.749 C 261.719 393.202 262.071 394.007 261.931 394.815 C 261.923 394.863 261.913 394.909 261.901 394.955 C 262.107 395.068 262.292 395.215 262.45 395.386 L 266.21 395.386 L 266.21 390.541 L 266.21 390.541 Z  M 266.21 396.209 L 266.21 396.209 L 262.928 396.209 C 262.972 396.348 263.002 396.492 263.017 396.641 L 263.087 396.641 C 263.466 396.641 263.774 396.95 263.774 397.329 C 263.774 397.982 263.713 398.624 263.595 399.252 C 263.714 399.242 263.835 399.237 263.958 399.237 C 264.456 399.237 264.93 399.316 265.293 399.459 C 265.849 399.679 266.003 399.99 266.036 400.206 C 266.095 400.235 266.153 400.266 266.21 400.298 L 266.21 396.209 L 266.21 396.209 Z  M 260.999 401.265 C 260.85 401.384 260.76 401.484 260.707 401.557 C 260.712 401.557 260.717 401.557 260.723 401.557 C 260.955 401.557 261.374 401.463 261.85 401.2 C 262.027 401.102 262.19 400.991 262.322 400.879 C 262.476 400.749 262.701 400.749 262.854 400.879 C 262.986 400.991 263.149 401.102 263.326 401.2 C 263.802 401.463 264.221 401.557 264.454 401.557 C 264.459 401.557 264.464 401.557 264.469 401.557 C 264.417 401.484 264.326 401.384 264.178 401.265 C 264.048 401.161 263.994 400.99 264.039 400.83 C 264.085 400.671 264.222 400.554 264.387 400.535 C 264.789 400.488 265.043 400.386 265.162 400.311 C 265.013 400.218 264.636 400.06 263.958 400.06 C 263.397 400.06 262.986 400.178 262.79 400.289 C 262.664 400.359 262.512 400.359 262.387 400.289 C 262.19 400.178 261.779 400.06 261.218 400.06 C 260.54 400.06 260.164 400.218 260.015 400.311 C 260.133 400.386 260.387 400.488 260.789 400.535 C 260.954 400.554 261.091 400.671 261.137 400.83 C 261.183 400.99 261.128 401.161 260.999 401.265 L 260.999 401.265 Z  M 261.822 406.274 L 261.808 406.351 C 261.759 406.615 261.656 406.858 261.511 407.069 L 263.96 407.069 C 265.936 407.069 267.543 405.605 267.543 403.807 C 267.543 402.578 266.792 401.506 265.686 400.95 C 265.559 401.044 265.401 401.126 265.213 401.192 C 265.287 401.319 265.339 401.456 265.352 401.599 C 265.368 401.789 265.31 401.969 265.188 402.107 C 265.027 402.288 264.78 402.38 264.454 402.38 C 264.019 402.38 263.448 402.208 262.927 401.92 C 262.808 401.854 262.694 401.784 262.588 401.71 C 262.482 401.783 262.369 401.854 262.249 401.92 C 261.728 402.208 261.157 402.38 260.723 402.38 L 260.722 402.38 C 260.396 402.38 260.149 402.288 259.988 402.107 C 259.866 401.969 259.808 401.789 259.825 401.599 C 259.837 401.456 259.889 401.319 259.963 401.192 C 259.775 401.126 259.617 401.044 259.49 400.95 C 258.613 401.39 257.959 402.156 257.726 403.067 L 260.637 404.173 C 261.489 404.497 261.987 405.38 261.822 406.274 L 261.822 406.274 Z  M 246.668 406.681 C 246.871 406.924 247.169 407.064 247.487 407.064 L 247.919 407.064 L 248.189 405.607 C 248.23 405.383 248.445 405.235 248.669 405.277 C 248.892 405.318 249.04 405.533 248.998 405.756 L 248.756 407.064 L 250.172 407.065 L 250.355 406.079 C 250.396 405.856 250.611 405.708 250.834 405.75 C 251.058 405.791 251.206 406.006 251.164 406.229 L 251.009 407.065 L 254.303 407.066 L 254.551 405.728 C 254.593 405.504 254.807 405.357 255.031 405.398 C 255.254 405.44 255.402 405.654 255.361 405.878 L 255.14 407.067 L 259.95 407.068 C 259.95 407.068 259.95 407.068 259.95 407.068 C 260.465 407.068 260.905 406.704 260.999 406.201 L 261.013 406.124 C 261.106 405.622 260.825 405.125 260.345 404.942 L 258.727 404.328 L 258.607 404.978 C 258.57 405.176 258.397 405.315 258.203 405.315 C 258.178 405.315 258.152 405.313 258.127 405.308 C 257.904 405.267 257.756 405.052 257.797 404.828 L 257.945 404.031 L 255.544 403.119 C 255.332 403.038 255.225 402.8 255.306 402.588 C 255.386 402.375 255.624 402.268 255.836 402.349 L 256.954 402.774 C 257.267 401.664 258.072 400.737 259.14 400.206 C 259.174 399.99 259.327 399.679 259.883 399.459 C 260.246 399.316 260.72 399.237 261.218 399.237 C 261.561 399.237 261.888 399.275 262.177 399.344 L 262.177 399.095 C 262.177 398.868 262.361 398.683 262.588 398.683 C 262.684 398.683 262.772 398.717 262.842 398.772 C 262.907 398.343 262.944 397.906 262.95 397.464 L 249.544 397.464 C 249.317 397.464 249.133 397.28 249.133 397.053 C 249.133 396.825 249.317 396.641 249.544 396.641 L 249.713 396.641 C 249.451 396.101 249.303 395.496 249.303 394.857 C 249.303 394.494 249.58 394.194 249.934 394.16 C 249.78 394.015 249.588 393.917 249.373 393.88 C 249.311 393.869 249.247 393.863 249.184 393.863 C 248.653 393.863 248.201 394.243 248.11 394.767 C 248.1 394.828 248.094 394.89 248.094 394.953 C 248.094 395.166 247.931 395.344 247.719 395.362 C 247.227 395.406 246.825 395.776 246.74 396.262 C 246.718 396.391 246.721 396.519 246.743 396.641 L 247.185 396.641 C 247.412 396.641 247.596 396.825 247.596 397.053 C 247.596 397.28 247.412 397.464 247.185 397.464 L 243.986 397.464 C 243.996 398.219 244.093 398.957 244.275 399.672 L 246.505 400.989 C 246.642 400.514 246.959 400.111 247.395 399.867 C 247.885 399.593 248.468 399.55 248.993 399.749 L 253.587 401.494 C 253.799 401.575 253.906 401.813 253.825 402.025 C 253.744 402.238 253.507 402.345 253.294 402.264 L 252.689 402.034 L 252.501 403.049 C 252.465 403.247 252.292 403.385 252.097 403.385 C 252.072 403.385 252.047 403.383 252.022 403.378 C 251.798 403.337 251.65 403.122 251.692 402.899 L 251.907 401.737 L 248.701 400.519 C 248.404 400.406 248.074 400.43 247.797 400.585 C 247.521 400.74 247.33 401.007 247.272 401.317 L 246.439 405.812 C 246.382 406.122 246.465 406.439 246.668 406.681 L 246.668 406.681 Z  M 245.199 403.46 C 245.391 403.495 245.532 403.66 245.536 403.855 C 245.541 404.051 245.407 404.222 245.217 404.266 L 242.153 404.968 L 242.229 405.482 L 245.782 404.844 L 246.337 401.846 L 243.243 400.019 L 242.985 400.476 L 245.595 402.22 C 245.757 402.329 245.821 402.536 245.747 402.717 C 245.674 402.898 245.484 403.002 245.292 402.967 L 241.192 402.214 L 241.101 402.707 L 245.199 403.46 L 245.199 403.46 Z " fill-rule="evenodd" fill="rgb(235,235,235)"/></g></g></svg>